# xmcd
#
# Track frame offsets:
# 150
# 15399
# 33124
# 50882
# 69614
# 85717
# 101324
# 114789
# 128554
# 143479
# 164279
# 182207
# 198117
# 217982
#
# Disc length: 3255 seconds
#
#
# Revision: 0
# Processed by: cddbd v1.5.2PL0 Copyright (c) Steve Scherf et al.
# Submitted via: FreeRIP 2.96 
#
DISCID=aa0cb50e
DTITLE=RICK E RENNER-SUPER 3-CD 3 - 
DYEAR=1900
DGENRE=
TTITLE0=GALERA DA BALADA
TTITLE1=FIM DE SEMANA
TTITLE2=SE APERTAR ELA DÁ
TTITLE3=HOMEM CARENTE
TTITLE4=MULECA
TTITLE5=ENROSCA,ENROSCA
TTITLE6=QUE NEM CHICLETE
TTITLE7=CÊ TÁ QUERENDO O QUÊ?
TTITLE8=PRECISO TE ENCONTRAR
TTITLE9=INSTANTE MÁGICO
TTITLE10=BABY
TTITLE11=PRA FICAR DEZ
TTITLE12=OUTRA CHANCE NUNCA MAIS
TTITLE13=SÓ PENSANDO EM VOCÊ
EXTD=
EXTT0=
EXTT1=
EXTT2=
EXTT3=
EXTT4=
EXTT5=
EXTT6=
EXTT7=
EXTT8=
EXTT9=
EXTT10=
EXTT11=
EXTT12=
EXTT13=
PLAYORDER=
